<?xml version="1.0" standalone="no"?>
<!DOCTYPE svg PUBLIC "-//W3C//DTD SVG 20010904//EN"
 "http://www.w3.org/TR/2001/REC-SVG-20010904/DTD/svg10.dtd">
<svg version="1.0" xmlns="http://www.w3.org/2000/svg"
 width="500.000000pt" height="500.000000pt" viewBox="0 0 500.000000 500.000000"
 preserveAspectRatio="xMidYMid meet">

<g transform="translate(0.000000,500.000000) scale(0.100000,-0.100000)"
fill="#000000" stroke="none">
<path d="M2180 4176 c-396 -57 -773 -258 -1031 -550 -417 -469 -545 -1087
-348 -1679 84 -253 216 -465 409 -657 152 -152 270 -238 455 -330 210 -104
396 -154 632 -169 509 -33 967 140 1328 503 386 387 561 934 470 1471 -58 351
-221 668 -474 922 -248 251 -561 415 -911 479 -117 22 -409 27 -530 10z m505
-32 c273 -47 511 -146 717 -300 232 -173 395 -367 519 -619 358 -729 146
-1598 -509 -2085 -291 -217 -633 -330 -997 -330 -576 0 -1096 285 -1415 775
-263 404 -334 953 -184 1416 46 144 155 359 239 472 292 392 716 635 1200 687
105 11 317 4 430 -16z"/>
<path d="M2230 4119 c-537 -56 -1028 -404 -1279 -906 -92 -183 -161 -463 -161
-648 l0 -75 490 0 490 0 0 488 c0 301 -4 501 -10 524 -6 20 -24 48 -40 62 -17
13 -30 29 -30 35 0 8 148 11 484 11 l484 0 6 -42 c14 -103 19 -238 8 -238 -6
0 -25 27 -43 60 -80 150 -190 190 -526 190 l-153 0 0 -316 0 -316 223 4 c215
3 224 4 272 28 38 19 55 36 70 67 31 65 45 55 45 -32 l0 -75 434 0 434 0 6
-42 c14 -103 19 -238 8 -238 -6 0 -25 27 -43 60 -80 150 -190 190 -526 190
l-153 0 0 -210 0 -210 660 0 660 0 0 86 c0 101 -13 195 -45 324 -71 283 -217
540 -426 749 -356 355 -831 522 -1339 470z"/>
<path d="M1950 2701 l0 -211 295 0 295 0 0 143 c0 172 -13 204 -95 246 -48 25
-56 26 -272 29 l-223 4 0 -211z"/>
<path d="M1762 2378 c-17 -17 -15 -45 3 -52 23 -8 18 -20 -15 -35 -17 -7 -46
-28 -65 -46 -58 -54 -42 -125 29 -125 73 0 179 105 146 145 -18 22 -35 19 -75
-16 -34 -30 -47 -71 -26 -83 5 -4 7 3 4 13 -7 27 13 58 48 76 56 29 66 -5 18
-60 -38 -43 -78 -65 -117 -65 -35 0 -52 16 -52 50 0 44 95 119 152 120 19 1
17 4 -15 21 -25 13 -37 26 -35 37 5 24 64 28 89 6 10 -9 19 -12 19 -6 0 28
-84 44 -108 20z"/>
<path d="M2593 2383 c-18 -7 -16 -52 2 -59 22 -9 18 -21 -10 -28 -13 -3 -43
-23 -65 -45 -32 -30 -40 -45 -40 -72 0 -45 15 -59 60 -59 49 0 123 49 145 96
15 33 15 38 2 52 -13 13 -20 13 -47 2 -17 -7 -37 -22 -45 -34 -16 -22 -20 -76
-6 -76 4 0 6 11 3 26 -8 43 62 100 87 70 26 -31 -74 -126 -133 -126 -39 0 -56
15 -56 51 0 43 65 99 140 119 l25 6 -30 15 c-18 9 -30 22 -30 34 0 27 59 34
86 9 23 -21 26 -12 3 10 -15 15 -65 20 -91 9z"/>
<path d="M3081 2336 c-6 -7 -14 -27 -17 -44 -6 -29 -10 -32 -43 -33 l-36 -2
35 -6 c26 -4 36 -12 38 -28 2 -16 -7 -28 -43 -48 -56 -34 -100 -29 -93 10 l5
24 -29 -24 c-75 -63 -142 -32 -104 48 27 57 36 88 30 98 -12 20 -43 -24 -55
-76 -8 -38 -16 -52 -26 -48 -18 7 -43 -15 -43 -38 0 -28 19 -33 44 -10 22 21
22 21 39 1 20 -24 48 -25 87 -5 27 14 32 14 55 -1 29 -19 64 -13 106 17 l27
19 17 -26 c14 -22 22 -25 47 -20 30 6 93 45 85 53 -3 2 -22 -7 -42 -22 -21
-14 -44 -25 -51 -25 -16 0 -44 28 -44 43 1 40 13 54 58 65 l47 11 -44 -6 c-47
-6 -44 -10 -26 54 7 25 -8 38 -24 19z m9 -37 c-11 -36 -20 -49 -20 -28 0 25
12 59 20 59 5 0 5 -14 0 -31z m-285 -16 c-18 -42 -41 -71 -30 -38 18 53 28 75
36 75 5 0 2 -17 -6 -37z m-59 -94 c7 -12 -22 -46 -32 -37 -8 9 5 48 16 48 5 0
12 -5 16 -11z"/>
<path d="M2075 2210 c-56 -59 -126 -74 -140 -29 -9 26 -19 24 -35 -8 -9 -20
-14 -24 -18 -14 -3 8 7 25 22 38 31 26 22 31 -12 7 -12 -8 -22 -26 -22 -40 0
-27 12 -31 34 -9 13 13 18 13 44 -2 27 -16 31 -16 70 4 35 17 44 18 53 7 15
-18 67 -17 99 1 32 18 40 18 40 0 0 -18 31 -20 49 -2 8 6 2 -9 -13 -34 -27
-48 -35 -94 -14 -87 7 3 21 33 33 69 l20 64 47 5 c66 8 68 17 3 14 -36 -1 -55
2 -55 9 0 7 -10 0 -21 -15 -26 -35 -39 -36 -39 -3 l0 24 -36 -24 c-42 -28 -54
-31 -54 -11 0 7 -7 19 -15 26 -12 10 -13 16 -4 26 22 27 -8 14 -36 -16z m45
-33 c0 -15 -30 -19 -45 -7 -23 19 0 43 26 27 10 -6 19 -15 19 -20z m128 -89
c-6 -18 -13 -27 -15 -21 -4 11 13 53 22 53 2 0 -1 -15 -7 -32z"/>
<path d="M880 1967 c0 -15 43 -124 70 -177 305 -610 937 -970 1603 -912 519
45 981 332 1260 782 46 76 120 232 132 283 l7 27 -616 0 -616 0 0 -204 c0
-271 -17 -250 215 -254 201 -4 297 8 371 43 62 30 128 99 156 161 22 52 44 53
41 3 -1 -19 -5 -80 -9 -136 l-6 -103 -514 0 c-439 0 -514 2 -514 14 0 8 9 18
20 21 45 14 55 57 58 263 l4 192 -831 0 c-457 0 -831 -2 -831 -3z"/>
</g>
</svg>
